<?xml version="1.0" encoding="utf-8"?>
<!-- Generator: Adobe Illustrator 17.0.0, SVG Export Plug-In . SVG Version: 6.00 Build 0)  -->
<!DOCTYPE svg PUBLIC "-//W3C//DTD SVG 1.1//EN" "http://www.w3.org/Graphics/SVG/1.1/DTD/svg11.dtd">
<svg version="1.1" id="Layer_1" xmlns="http://www.w3.org/2000/svg" xmlns:xlink="http://www.w3.org/1999/xlink" x="0px" y="0px"
	 width="432.52px" height="93px" viewBox="0 0 432.52 93" enable-background="new 0 0 432.52 93" xml:space="preserve">
<g>
	<g>
		<path fill="#FFFFFF" d="M291.043,32.588c-10.058-3.757-14.449-5.921-14.449-10.814c0-3.985,3.698-7.401,11.327-7.401
			c7.632,0,13.18,2.162,16.3,3.644l3.932-14.005c-4.623-2.049-11.099-3.873-19.885-3.873c-18.378,0-29.477,10.02-29.477,23.114
			c0,1.548,0.166,3.013,0.48,4.406h6.153h10.138l-1.877,9.963l-0.973,5.156c2.271,1.165,4.768,2.206,7.463,3.128
			c9.364,3.303,13.065,6.034,13.065,10.817c0,5.008-4.279,8.312-12.371,8.312c-1.913,0-3.81-0.157-5.658-0.427l-1.168,6.429
			l-1.411,7.76c2.334,0.296,4.759,0.468,7.197,0.468c21.388,0,31.443-10.93,31.443-23.793
			C311.272,44.657,304.799,37.597,291.043,32.588"/>
		<path fill="#FFFFFF" d="M431.238,76.23l-2.675-13.622c-3.487,1.373-9.415,2.517-14.761,2.517c-15.81,0-25.109-9.732-25.109-25.186
			c0-17.172,10.927-25.531,24.994-25.531c6.277,0,11.274,1.373,14.876,2.862l3.606-13.851c-3.14-1.604-10.114-3.437-19.298-3.437
			c-18.527,0-34.216,8.946-40.193,25.415L388.05,74.21c6.147,3.41,13.85,5.34,23.078,5.34
			C420.661,79.551,427.985,77.831,431.238,76.23"/>
		<path fill="#FFFFFF" d="M334.829,45.546l4.649-16.368c1.278-4.466,2.44-10.304,3.603-14.885h0.234
			c1.162,4.581,2.556,10.304,3.95,14.885l4.884,16.368H334.829z M355.52,1.243h-23.25l-13.592,43.796
			c1.186,3.262,1.782,6.796,1.782,10.583c0,8.884-3.484,16.913-9.847,22.782h16.077l5.581-19.802h22.435l6.046,19.802h19.066
			L355.52,1.243z"/>
		<path fill="#FFFFFF" d="M-0.352,47.018c0,20.238,13.853,32.516,34.402,32.516c9.118,0,16.039-1.402,20.232-3.161
			c-0.202-0.208-0.403-0.415-0.599-0.629c-2.93-3.146-5.272-6.808-6.989-10.903c-2.612,0.463-5.432,0.709-8.255,0.709
			c-13.738,0-20.665-8.187-20.665-20.35c0-10.69,4.154-19.443,10.734-24.673c4.735-3.867,11.084-5.913,17.779-5.913
			c2.295,0,4.397,0.16,6.265,0.415c2.194-3.469,4.744-6.612,7.612-9.332l0.015-0.012l0.015-0.015
			c0.99-0.928,2.019-1.809,3.084-2.645c-2.977-1.219-8.478-2.511-15.375-2.511c-10.965,0-20.549,2.615-28.629,8.187
			C7.497,16.432-0.352,29.849-0.352,47.018"/>
		<path fill="#FFFFFF" d="M68.944,47.132c0-9.21,3.463-21.148,9.699-27.176c3.579-3.635,8.196-5.797,13.391-5.797
			c12.237,0,15.701,9.21,15.701,18.761c0,8.869-3.348,21.489-9.465,27.517c-3.582,3.41-8.199,5.569-13.047,5.569
			C73.908,66.005,68.944,57.934,68.944,47.132 M111.545,68.621c0.039-0.038,0.077-0.077,0.116-0.119l10.153-52.472
			c-4.738-9.456-14.126-15.514-27.817-15.514c-11.2,0-21.127,4.092-28.401,10.915C56.475,20.071,51.28,33.83,51.28,47.701
			c0,17.851,11.315,31.95,31.517,31.95C94.46,79.651,104.271,75.556,111.545,68.621"/>
		<path fill="#FFFFFF" d="M146.827,14.842c1.732-0.341,4.157-0.457,7.042-0.457c13.738,0,20.549,7.164,20.549,19.218
			c0,9.21-2.77,17.168-8.08,23.081c-5.079,5.797-13.047,8.982-22.052,8.982c-2.885,0-5.311-0.113-7.274-0.457L146.827,14.842z
			 M176.497,68.734c0.857-0.673,1.687-1.388,2.488-2.141l9.578-49.652c-1.663-2.933-3.792-5.391-6.292-7.443
			c-6.583-5.572-16.279-8.299-28.401-8.299c-7.505,0-14.894,0.566-21.474,1.705L117.964,77.49c3.81,0.682,11.893,1.364,21.243,1.364
			C156.064,78.855,167.492,75.783,176.497,68.734"/>
	</g>
	<g>
		<defs>
			<path id="SVGID_1_" d="M236.757,68.573l9.376-12.092c2.713-3.769,4.904-7.363,7.446-11.214h0.353
				c-0.881,3.591-1.93,7.532-2.722,11.125l-2.624,12.353h-11.917L236.757,68.573z M251.21,35.276l-27.155,34.696l-1.577,8.412h24.27
				l-2.63,13.839h11.825l2.63-13.839h6.746l1.752-9.64h-6.657l6.307-33.468H251.21z"/>
		</defs>
		<clipPath id="SVGID_2_">
			<use xlink:href="#SVGID_1_"  overflow="visible"/>
		</clipPath>
		
			<linearGradient id="SVGID_3_" gradientUnits="userSpaceOnUse" x1="-101.9257" y1="438.0977" x2="-98.9605" y2="438.0977" gradientTransform="matrix(0 -24.9736 -24.9736 0 11185.6387 -2444.6736)">
			<stop  offset="0" style="stop-color:#0070B9"/>
			<stop  offset="1" style="stop-color:#00B1E1"/>
		</linearGradient>
		<rect x="222.477" y="35.276" clip-path="url(#SVGID_2_)" fill="url(#SVGID_3_)" width="44.594" height="56.947"/>
	</g>
	<polygon fill="#FFFFFF" points="216.606,68.575 216.947,66.757 218.086,65.302 218.782,64.415 204.03,64.415 207.609,45.879 
		235.316,45.879 237.973,32.124 210.263,32.124 213.495,15.75 242.821,15.75 245.591,1.766 199.529,1.766 184.751,78.399 
		214.765,78.399 215.028,76.984 	"/>
</g>
</svg>
