<?xml version="1.0" encoding="utf-8"?>
<!-- Generator: Adobe Illustrator 17.0.0, SVG Export Plug-In . SVG Version: 6.00 Build 0)  -->
<!DOCTYPE svg PUBLIC "-//W3C//DTD SVG 1.1//EN" "http://www.w3.org/Graphics/SVG/1.1/DTD/svg11.dtd">
<svg version="1.1" id="Layer_1" xmlns="http://www.w3.org/2000/svg" xmlns:xlink="http://www.w3.org/1999/xlink" x="0px" y="0px"
	 width="203px" height="99px" viewBox="0 0 203 99" enable-background="new 0 0 203 99" xml:space="preserve">
<g>
	<polygon fill="#FFFFFF" points="202.802,94.825 -0.065,94.825 39.279,6.424 163.458,6.424 	"/>
	<polygon fill="#E6E7E8" points="198.741,92.543 3.995,92.543 40.995,7.797 161.741,7.797 	"/>
	<g>
		<polygon fill="#BCBEC0" points="109.892,81.115 85.111,74.566 79.302,92.543 106.889,92.543 		"/>
		<path fill="#BCBEC0" d="M130.502,39.931L116.386,7.797H68.795c0,6.229,0,16.027,0,29.165c30.536,0,51.576,1.294,51.576,1.294
			L130.502,39.931z"/>
		<polygon fill="#BCBEC0" points="175.215,38.658 138.429,36.961 136.417,58.259 144.465,59.304 179.195,47.772 		"/>
	</g>
	<g>
		<path fill="#E6E7E8" d="M140.362,41.043c0,0,0-0.008,0-33.246h-27.487c0,5.932,0,13.854,0,19.338
			c5.664,2.764,17.627,12.796,17.627,12.796L140.362,41.043z"/>
		<path fill="#E6E7E8" d="M165.679,16.815c-7.033,2.71-12.35,5.771-12.35,8.831c5.438,0,10.958,0,16.206,0L165.679,16.815z"/>
		<path fill="#E6E7E8" d="M47.555,77.075c2.945,0,47.617,5.018,54.659,5.645c7.042,0.627,44.263-3.763,44.263-3.763l-11.066-15.053
			L91.653,53.659l-49.463,9.826v13.802C42.189,77.287,44.61,77.075,47.555,77.075z"/>
	</g>
	<g>
		<path fill="#D1D3D4" d="M89.945,36.961c0,0,0,0,0,10.902c25.963,0,34.378,9.846,34.378,9.846h16.039V41.043
			C128.274,34.222,89.945,36.961,89.945,36.961z"/>
		<rect x="42.189" y="7.797" fill="#D1D3D4" width="37.181" height="64.277"/>
		<path fill="#D1D3D4" d="M169.534,25.646h-12.486c0,0-2.002-2.081,5.339-5.826c0.954-0.487,2.297-1.03,3.902-1.607l-4.548-10.417
			h-21.379v33.246c0,0,17.714,0,35.894,0L169.534,25.646z"/>
	</g>
	<g>
		<polygon fill="#F1F2F2" points="153.109,78.956 112.656,68.22 107.028,92.543 111.211,92.543 		"/>
		<path fill="#F1F2F2" d="M93.159,77.284l-41.581-2.718c0,0-2.458,8.988-1.486,17.977h34.601L93.159,77.284z"/>
		<path fill="#F1F2F2" d="M89.945,47.863V36.961h-21.15v11.801C73.608,48.763,89.945,47.863,89.945,47.863z"/>
	</g>
	<path fill="#C9DDF2" d="M194.468,82.755c-6.662-1.486-20.036-5.427-32.28-14.856c-8.438-10.074-49.732-26.753-106.107-18.134
		C43.601,51.771,27.28,59.7,16.389,64.157L9.094,80.865c9.055-3.701,40.203-16.156,51.656-17.108
		c13.465-1.119,43.089-4.366,57.093,1.567c14.004,5.933,20.467,11.082,26.751,16.231c3.007,2.464,10.443,7.304,20.128,10.987h34.02
		L194.468,82.755z"/>
	<path fill="#FFFFFF" d="M186.024,60.212l-0.807-1.908h-51.816l-10.296-27.542h50.472l-0.845-2h-50.374L114.38,7.424h-2.135
		l7.977,21.338H82.409l7.98-21.338h-2.135l-7.98,21.338H31.126l-0.858,2h49.257L69.225,58.304H18.456l-0.858,2h50.879L55.939,93.825
		h2.135l12.537-33.521h61.402l12.532,33.521h2.135l-12.532-33.521h51.467C185.762,60.304,185.898,60.269,186.024,60.212z
		 M71.36,58.304l10.301-27.542h39.309l10.296,27.542H71.36z"/>
	<g>
		<path fill="#D1D3D4" d="M89.468,85.52l7.174-3.953h-5.388l1.646-1.19h5.982l5.292-2.925h-5.651l1.646-1.19h6.245l7.036-3.853h3.81
			l-6.971,3.853h6.839l7.036-3.853h3.879l-6.971,3.853h5.388l-1.646,1.19h-5.982l-5.228,2.925h5.651l-1.646,1.19h-6.245
			l-7.174,3.953h-3.944l7.179-3.953h-6.839l-7.174,3.953H89.468z M109.658,80.377l5.292-2.925h-6.833l-5.292,2.925H109.658z"/>
	</g>
	<g>
		<path fill="#F0924D" d="M89.698,85.52l1.707-12.88h-5.388v-3.877h5.982l1.247-9.53h-5.651v-3.877h6.245l1.707-12.553h3.81
			l-1.643,12.553h6.839l1.707-12.553h3.879l-1.643,12.553h5.388v3.877h-5.982l-1.183,9.53h5.651v3.877h-6.245l-1.707,12.88h-3.944
			l1.712-12.88h-6.839l-1.707,12.88H89.698z M102.776,68.764l1.247-9.53h-6.833l-1.247,9.53H102.776z"/>
	</g>
	<g>
		<path opacity="0.5" fill="#D1D3D4" d="M48.843,42.064l5.066-2.791h-3.805l1.162-0.84h4.224l3.737-2.065h-3.99l1.162-0.84h4.409
			l4.968-2.721h2.69l-4.922,2.721h4.829l4.968-2.721h2.739l-4.922,2.721h3.805l-1.162,0.84h-4.224l-3.691,2.065h3.99l-1.162,0.84
			h-4.409l-5.066,2.791h-2.785l5.069-2.791h-4.829l-5.066,2.791H48.843z M63.099,38.432l3.737-2.065h-4.825l-3.737,2.065H63.099z"/>
	</g>
	<g>
		<path fill="#F0924D" d="M49.006,42.064l1.205-9.094h-3.805v-2.737h4.224l0.88-6.729h-3.99v-2.737h4.409l1.205-8.864h2.69
			l-1.16,8.864h4.829l1.205-8.864h2.739l-1.16,8.864h3.805v2.737H61.86l-0.835,6.729h3.99v2.737h-4.409L59.4,42.064h-2.785
			l1.209-9.094h-4.829l-1.205,9.094H49.006z M58.24,30.232l0.88-6.729h-4.825l-0.88,6.729H58.24z"/>
	</g>
	<g>
		<path opacity="0.5" fill="#D1D3D4" d="M137.985,42.064l5.066-2.791h-3.805l1.162-0.84h4.224l3.737-2.065h-3.99l1.162-0.84h4.409
			l4.968-2.721h2.69l-4.922,2.721h4.829l4.968-2.721h2.739l-4.922,2.721h3.805l-1.162,0.84h-4.224l-3.691,2.065h3.99l-1.162,0.84
			h-4.409l-5.066,2.791h-2.785l5.069-2.791h-4.829l-5.066,2.791H137.985z M152.241,38.432l3.737-2.065h-4.825l-3.737,2.065H152.241z
			"/>
	</g>
	<g>
		<path fill="#F0924D" d="M138.147,42.064l1.205-9.094h-3.805v-2.737h4.224l0.88-6.729h-3.99v-2.737h4.409l1.205-8.864h2.69
			l-1.16,8.864h4.829l1.205-8.864h2.739l-1.16,8.864h3.805v2.737h-4.224l-0.835,6.729h3.99v2.737h-4.409l-1.205,9.094h-2.785
			l1.209-9.094h-4.829l-1.205,9.094H138.147z M147.381,30.232l0.88-6.729h-4.825l-0.88,6.729H147.381z"/>
	</g>
	<g>
		<path opacity="0.5" fill="#D1D3D4" d="M96.417,19.665l3.231-1.78h-2.427l0.741-0.536h2.694l2.383-1.317h-2.545l0.741-0.536h2.812
			l3.169-1.735h1.716l-3.14,1.735h3.08l3.169-1.735h1.747l-3.14,1.735h2.427l-0.741,0.536h-2.694l-2.354,1.317h2.545l-0.741,0.536
			h-2.812l-3.231,1.78h-1.776l3.233-1.78h-3.08l-3.231,1.78H96.417z M105.51,17.349l2.383-1.317h-3.077l-2.383,1.317H105.51z"/>
	</g>
	<g>
		<path fill="#F0924D" d="M96.52,19.665l0.769-5.801h-2.427v-1.746h2.694l0.562-4.292h-2.545V6.08h2.812l0.769-5.654h1.716
			l-0.74,5.654h3.08l0.769-5.654h1.747l-0.74,5.654h2.427v1.746h-2.694l-0.533,4.292h2.545v1.746h-2.812l-0.769,5.801h-1.776
			l0.771-5.801h-3.08l-0.769,5.801H96.52z M102.41,12.118l0.562-4.292h-3.077l-0.562,4.292H102.41z"/>
	</g>
	<g>
		<path fill="#F0924D" d="M101.101,98.573c-18.917,0-34.306-15.39-34.306-34.306c0-18.916,15.39-34.306,34.306-34.306
			c18.916,0,34.306,15.39,34.306,34.306C135.407,83.184,120.017,98.573,101.101,98.573z M101.101,33.962
			c-16.711,0-30.306,13.595-30.306,30.306c0,16.711,13.595,30.306,30.306,30.306c16.71,0,30.306-13.595,30.306-30.306
			C131.407,47.557,117.812,33.962,101.101,33.962z"/>
	</g>
</g>
</svg>
