<?xml version="1.0" encoding="utf-8"?>
<!-- Generator: Adobe Illustrator 17.0.0, SVG Export Plug-In . SVG Version: 6.00 Build 0)  -->
<!DOCTYPE svg PUBLIC "-//W3C//DTD SVG 1.1//EN" "http://www.w3.org/Graphics/SVG/1.1/DTD/svg11.dtd">
<svg version="1.1" id="Layer_1" xmlns="http://www.w3.org/2000/svg" xmlns:xlink="http://www.w3.org/1999/xlink" x="0px" y="0px"
	 width="203px" height="99px" viewBox="0 0 203 99" enable-background="new 0 0 203 99" xml:space="preserve">
<g>
	<polygon fill="#FFFFFF" points="202.802,94.825 -0.065,94.825 39.279,6.424 163.458,6.424 	"/>
	<polygon fill="#E6E7E8" points="198.741,92.543 3.995,92.543 40.995,7.797 161.741,7.797 	"/>
	<g>
		<polygon fill="#BCBEC0" points="109.892,81.115 85.111,74.566 79.302,92.543 106.889,92.543 		"/>
		<path fill="#BCBEC0" d="M130.502,39.931L116.386,7.797H68.795c0,6.229,0,16.027,0,29.165c30.536,0,51.576,1.294,51.576,1.294
			L130.502,39.931z"/>
		<polygon fill="#BCBEC0" points="175.215,38.658 138.429,36.961 136.417,58.259 144.465,59.304 179.195,47.772 		"/>
	</g>
	<g>
		<path fill="#E6E7E8" d="M140.362,41.043c0,0,0-0.008,0-33.246h-27.487c0,5.932,0,13.854,0,19.338
			c5.664,2.764,17.627,12.796,17.627,12.796L140.362,41.043z"/>
		<path fill="#E6E7E8" d="M165.679,16.815c-7.033,2.71-12.35,5.771-12.35,8.831c5.438,0,10.958,0,16.206,0L165.679,16.815z"/>
		<path fill="#E6E7E8" d="M47.555,77.075c2.945,0,47.617,5.018,54.659,5.645c7.042,0.627,44.263-3.763,44.263-3.763l-11.066-15.053
			L91.653,53.659l-49.463,9.826v13.802C42.189,77.287,44.61,77.075,47.555,77.075z"/>
	</g>
	<g>
		<path fill="#D1D3D4" d="M89.945,36.961c0,0,0,0,0,10.902c25.963,0,34.378,9.846,34.378,9.846h16.039V41.043
			C128.274,34.222,89.945,36.961,89.945,36.961z"/>
		<rect x="42.189" y="7.797" fill="#D1D3D4" width="37.181" height="64.277"/>
		<path fill="#D1D3D4" d="M169.534,25.646h-12.486c0,0-2.002-2.081,5.339-5.826c0.954-0.487,2.297-1.03,3.902-1.607l-4.548-10.417
			h-21.379v33.246c0,0,17.714,0,35.894,0L169.534,25.646z"/>
	</g>
	<g>
		<polygon fill="#F1F2F2" points="153.109,78.956 112.656,68.22 107.028,92.543 111.211,92.543 		"/>
		<path fill="#F1F2F2" d="M93.159,77.284l-41.581-2.718c0,0-2.458,8.988-1.486,17.977h34.601L93.159,77.284z"/>
		<path fill="#F1F2F2" d="M89.945,47.863V36.961h-21.15v11.801C73.608,48.763,89.945,47.863,89.945,47.863z"/>
	</g>
	<path fill="#C9DDF2" d="M194.468,82.755c-6.662-1.486-20.036-5.427-32.28-14.856c-8.438-10.074-49.732-26.753-106.107-18.134
		C43.601,51.771,27.28,59.7,16.389,64.157L9.094,80.865c9.055-3.701,40.203-16.156,51.656-17.108
		c13.465-1.119,43.089-4.366,57.093,1.567c14.004,5.933,20.467,11.082,26.751,16.231c3.007,2.464,10.443,7.304,20.128,10.987h34.02
		L194.468,82.755z"/>
	<path fill="#FFFFFF" d="M186.024,60.212l-0.807-1.908h-51.816l-10.296-27.542h50.472l-0.845-2h-50.374L114.38,7.424h-2.135
		l7.977,21.338H82.409l7.98-21.338h-2.135l-7.98,21.338H31.126l-0.858,2h49.257L69.225,58.304H18.456l-0.858,2h50.879L55.939,93.825
		h2.135l12.537-33.521h61.402l12.532,33.521h2.135l-12.532-33.521h51.467C185.762,60.304,185.898,60.269,186.024,60.212z
		 M71.36,58.304l10.301-27.542h39.309l10.296,27.542H71.36z"/>
	<g>
		<g>
			<g>
				<path fill="#D1D3D4" d="M90.246,71.52l7.174-3.953h-5.388l1.646-1.19h5.982l5.292-2.925h-5.651l1.646-1.19h6.245l7.036-3.853
					h3.81l-6.971,3.853h6.839l7.036-3.853h3.879l-6.971,3.853h5.388l-1.646,1.19h-5.982l-5.228,2.925h5.651l-1.646,1.19h-6.245
					l-7.174,3.953h-3.944l7.179-3.953h-6.839L94.19,71.52H90.246z M110.437,63.377l5.292-2.925h-6.833l-5.292,2.925H110.437z"/>
			</g>
			<g>
				<path fill="#F0924D" d="M90.477,71.52l1.707-12.88h-5.388v-3.877h5.982l1.247-9.53h-5.651v-3.877h6.245l1.707-12.553h3.81
					l-1.643,12.553h6.839l1.707-12.553h3.879l-1.643,12.553h5.388v3.877h-5.982l-1.183,9.53h5.651v3.877h-6.245l-1.707,12.88h-3.944
					l1.712-12.88h-6.839L94.42,71.52H90.477z M103.554,54.764l1.247-9.53h-6.833l-1.247,9.53H103.554z"/>
			</g>
		</g>
		<g>
			<path fill="#F0924D" d="M101.368,84.468c-18.917,0-34.306-15.39-34.306-34.306c0-18.917,15.39-34.306,34.306-34.306
				s34.306,15.39,34.306,34.306C135.674,69.078,120.285,84.468,101.368,84.468z M101.368,19.856
				c-16.711,0-30.306,13.595-30.306,30.306c0,16.71,13.595,30.306,30.306,30.306s30.306-13.595,30.306-30.306
				C131.674,33.451,118.079,19.856,101.368,19.856z"/>
		</g>
	</g>
	<g>
		<g>
			<circle fill="#FFFFFF" cx="162.999" cy="68.958" r="19.402"/>
			<path fill="#F0924D" d="M162.999,90.36c-11.802,0-21.402-9.601-21.402-21.402c0-11.801,9.601-21.402,21.402-21.402
				s21.402,9.601,21.402,21.402C184.402,80.759,174.801,90.36,162.999,90.36z M162.999,51.555c-9.596,0-17.402,7.807-17.402,17.402
				c0,9.595,7.807,17.402,17.402,17.402s17.402-7.807,17.402-17.402C180.402,59.362,172.595,51.555,162.999,51.555z"/>
		</g>
		<path fill="#F0924D" d="M162.999,54.276c-3.308,0-6,2.692-6,6c0,3.308,2.692,6,6,6c3.308,0,6-2.692,6-6
			C168.999,56.968,166.308,54.276,162.999,54.276z"/>
		<path fill="#F0924D" d="M174.842,79.881c-0.192-6.382-5.413-11.501-11.842-11.501s-11.65,5.118-11.842,11.501H174.842z"/>
	</g>
	<g>
		<g>
			<circle fill="#FFFFFF" cx="44.547" cy="69.53" r="15.193"/>
			<path fill="#F0924D" d="M44.547,86.289c-9.241,0-16.759-7.518-16.759-16.759c0-9.24,7.518-16.758,16.759-16.758
				S61.306,60.29,61.306,69.53C61.306,78.771,53.788,86.289,44.547,86.289z M44.547,55.904c-7.514,0-13.627,6.113-13.627,13.626
				c0,7.514,6.113,13.627,13.627,13.627s13.627-6.113,13.627-13.627C58.174,62.017,52.061,55.904,44.547,55.904z"/>
		</g>
		<path fill="#F0924D" d="M44.547,58.035c-2.591,0-4.698,2.108-4.698,4.698c0,2.59,2.108,4.698,4.698,4.698s4.698-2.108,4.698-4.698
			C49.245,60.142,47.138,58.035,44.547,58.035z"/>
		<path fill="#F0924D" d="M53.82,78.084c-0.15-4.998-4.239-9.006-9.273-9.006s-9.123,4.008-9.273,9.006H53.82z"/>
	</g>
	<g>
		
			<rect x="59.847" y="19.745" transform="matrix(0.856 0.5169 -0.5169 0.856 20.7365 -32.9654)" fill="#F0924D" width="19.408" height="2"/>
	</g>
	<g>
		
			<rect x="130.954" y="57.493" transform="matrix(0.8839 0.4677 -0.4677 0.8839 43.912 -57.885)" fill="#F0924D" width="15.154" height="4"/>
	</g>
	<g>
		
			<rect x="63.191" y="54.169" transform="matrix(0.517 0.856 -0.856 0.517 84.4315 -25.6462)" fill="#F0924D" width="3.5" height="15.647"/>
	</g>
	<g>
		
			<rect x="132.64" y="17.893" transform="matrix(0.5245 0.8514 -0.8514 0.5245 85.0342 -102.1777)" fill="#F0924D" width="2.7" height="14.286"/>
	</g>
	<g>
		<g>
			<circle fill="#FFFFFF" cx="55.645" cy="10.629" r="8.758"/>
			<path fill="#F0924D" d="M55.645,20.289c-5.327,0-9.661-4.334-9.661-9.661c0-5.327,4.334-9.66,9.661-9.66s9.661,4.334,9.661,9.66
				C65.306,15.955,60.972,20.289,55.645,20.289z M55.645,2.774c-4.331,0-7.855,3.524-7.855,7.855c0,4.331,3.524,7.855,7.855,7.855
				c4.331,0,7.855-3.524,7.855-7.855C63.5,6.297,59.977,2.774,55.645,2.774z"/>
		</g>
		<circle fill="#F0924D" cx="55.645" cy="6.71" r="2.708"/>
		<path fill="#F0924D" d="M60.991,15.559c-0.087-2.881-2.443-5.191-5.345-5.191c-2.902,0-5.259,2.31-5.345,5.191L60.991,15.559z"/>
	</g>
	<g>
		<g>
			<circle fill="#FFFFFF" cx="147.358" cy="16.342" r="11.738"/>
			<path fill="#F0924D" d="M147.358,29.289c-7.139,0-12.948-5.808-12.948-12.948c0-7.139,5.808-12.947,12.948-12.947
				s12.948,5.808,12.948,12.947C160.306,23.481,154.497,29.289,147.358,29.289z M147.358,5.814c-5.805,0-10.528,4.723-10.528,10.528
				c0,5.805,4.723,10.528,10.528,10.528s10.528-4.723,10.528-10.528C157.886,10.537,153.163,5.814,147.358,5.814z"/>
		</g>
		<path fill="#F0924D" d="M147.358,7.46c-2.001,0-3.63,1.628-3.63,3.63c0,2.001,1.628,3.63,3.63,3.63c2.001,0,3.63-1.628,3.63-3.63
			C150.988,9.088,149.36,7.46,147.358,7.46z"/>
		<path fill="#F0924D" d="M154.522,22.95c-0.116-3.861-3.275-6.958-7.164-6.958s-7.048,3.096-7.164,6.958H154.522z"/>
	</g>
</g>
</svg>
