<?xml version="1.0" encoding="utf-8"?>
<!-- Generator: Adobe Illustrator 17.0.0, SVG Export Plug-In . SVG Version: 6.00 Build 0)  -->
<!DOCTYPE svg PUBLIC "-//W3C//DTD SVG 1.1//EN" "http://www.w3.org/Graphics/SVG/1.1/DTD/svg11.dtd">
<svg version="1.1" id="Layer_1" xmlns="http://www.w3.org/2000/svg" xmlns:xlink="http://www.w3.org/1999/xlink" x="0px" y="0px"
	 width="100px" height="100px" viewBox="0 0 100 100" enable-background="new 0 0 100 100" xml:space="preserve">
<g>
	<defs>
		<rect id="SVGID_1_" y="9" width="99.592" height="80.937"/>
	</defs>
	<clipPath id="SVGID_2_">
		<use xlink:href="#SVGID_1_"  overflow="visible"/>
	</clipPath>
	<path clip-path="url(#SVGID_2_)" fill="#6BCAD2" d="M99.593,18.581c-3.664,1.625-7.602,2.724-11.735,3.216
		c4.219-2.528,7.458-6.532,8.984-11.303c-3.948,2.341-8.32,4.042-12.975,4.958C80.138,11.481,74.828,9,68.952,9
		c-11.284,0-20.433,9.149-20.433,20.433c0,1.601,0.181,3.16,0.529,4.656c-16.981-0.852-32.036-8.988-42.114-21.35
		c-1.759,3.018-2.767,6.528-2.767,10.272c0,7.089,3.608,13.343,9.091,17.007c-3.351-0.105-6.501-1.024-9.256-2.555
		c-0.002,0.086-0.002,0.171-0.002,0.257c0,9.9,7.044,18.159,16.392,20.036c-1.714,0.465-3.52,0.716-5.384,0.716
		c-1.315,0-2.596-0.128-3.843-0.368c2.6,8.118,10.146,14.026,19.087,14.191c-6.993,5.48-15.804,8.747-25.376,8.747
		c-1.65,0-3.277-0.097-4.874-0.286c9.042,5.797,19.781,9.181,31.32,9.181c37.584,0,58.136-31.135,58.136-58.136
		c0-0.885-0.019-1.767-0.06-2.642C93.39,26.277,96.853,22.679,99.593,18.581"/>
</g>
</svg>
